{
  "accessors": [
    {
      "bufferView": 2,
      "componentType": 5126,
      "count": 722,
      "max": [
        71.14478302001953,
        71.14478302001953,
        23.948606491088867
      ],
      "min": [
        -71.14478302001953,
        -71.14478302001953,
        0.0
      ],
      "type": "VEC3"
    },
    {
      "bufferView": 2,
      "byteOffset": 8664,
      "componentType": 5126,
      "count": 722,
      "max": [
        0.9873390793800354,
        0.9873390793800354,
        0.9886255860328674
      ],
      "min": [
        -0.9873391389846802,
        -0.9873390793800354,
        -0.9886255860328674
      ],
      "type": "VEC3"
    },
    {
      "bufferView": 1,
      "componentType": 5126,
      "count": 722,
      "max": [
        1.03125,
        1.1170285940170288
      ],
      "min": [
        -0.0011715823784470558,
        -0.1424867957830429
      ],
      "type": "VEC2"
    },
    {
      "bufferView": 0,
      "componentType": 5125,
      "count": 2304,
      "type": "SCALAR"
    }
  ],
  "asset": {
    "extras": {
      "author": "Anthony Yanez (https://sketchfab.com/paulyanez)",
      "license": "CC-BY-4.0 (http://creativecommons.org/licenses/by/4.0/)",
      "source": "https://sketchfab.com/3d-models/the-one-ring-lord-of-the-rings-39eb401be92c49d39520fadd5ecff8d3",
      "title": "The One Ring (Lord of The Rings)"
    },
    "generator": "Sketchfab-12.66.0",
    "version": "2.0"
  },
  "bufferViews": [
    {
      "buffer": 0,
      "byteLength": 9216,
      "name": "floatBufferViews",
      "target": 34963
    },
    {
      "buffer": 0,
      "byteLength": 5776,
      "byteOffset": 9216,
      "byteStride": 8,
      "name": "floatBufferViews",
      "target": 34962
    },
    {
      "buffer": 0,
      "byteLength": 17328,
      "byteOffset": 14992,
      "byteStride": 12,
      "name": "floatBufferViews",
      "target": 34962
    }
  ],
  "buffers": [
    {
      "byteLength": 32320,
      "uri": "scene.bin"
    }
  ],
  "images": [
    {
      "uri": "textures/01_-_Default_baseColor.png"
    },
    {
      "uri": "textures/01_-_Default_emissive.png"
    }
  ],
  "materials": [
    {
      "doubleSided": true,
      "emissiveFactor": [
        1.0,
        1.0,
        1.0
      ],
      "emissiveTexture": {
        "index": 1
      },
      "name": "01_-_Default",
      "pbrMetallicRoughness": {
        "baseColorFactor": [
          0.4137878880356297,
          0.4137878880356297,
          0.4137878880356297,
          1.0
        ],
        "baseColorTexture": {
          "index": 0
        },
        "roughnessFactor": 0.0
      }
    }
  ],
  "meshes": [
    {
      "name": "The Ring_01 - Default_0",
      "primitives": [
        {
          "attributes": {
            "NORMAL": 1,
            "POSITION": 0,
            "TEXCOORD_0": 2
          },
          "indices": 3,
          "material": 0,
          "mode": 4
        }
      ]
    }
  ],
  "nodes": [
    {
      "children": [
        1
      ],
      "matrix": [
        0.8128922581672668,
        -0.5824140906333923,
        -1.2932190665746298e-16,
        0.0,
        0.0,
        2.220446049250313e-16,
        -1.0,
        0.0,
        0.5824140906333923,
        0.8128922581672668,
        1.8049834031136732e-16,
        0.0,
        -6.782143592834473,
        2.8377537727355957,
        6.301079153415924e-16,
        1.0
      ],
      "name": "Sketchfab_model"
    },
    {
      "children": [
        2
      ],
      "matrix": [
        1.0,
        0.0,
        0.0,
        0.0,
        0.0,
        0.0,
        1.0,
        0.0,
        0.0,
        -1.0,
        0.0,
        0.0,
        0.0,
        0.0,
        0.0,
        1.0
      ],
      "name": "The One Ring.FBX"
    },
    {
      "children": [
        3
      ],
      "name": "RootNode"
    },
    {
      "children": [
        4
      ],
      "matrix": [
        1.0,
        0.0,
        0.0,
        0.0,
        0.0,
        2.220446049250313e-16,
        -1.0,
        0.0,
        0.0,
        1.0,
        2.220446049250313e-16,
        0.0,
        1.025484561920166,
        0.0,
        -5.197672180656809e-06,
        1.0
      ],
      "name": "The Ring"
    },
    {
      "mesh": 0,
      "name": "The Ring_01 - Default_0"
    }
  ],
  "samplers": [
    {
      "magFilter": 9729,
      "minFilter": 9987,
      "wrapS": 10497,
      "wrapT": 10497
    }
  ],
  "scene": 0,
  "scenes": [
    {
      "name": "Sketchfab_Scene",
      "nodes": [
        0
      ]
    }
  ],
  "textures": [
    {
      "sampler": 0,
      "source": 0
    },
    {
      "sampler": 0,
      "source": 1
    }
  ]
}
